<svg width="406" height="306" viewBox="0 0 406 306" fill="none" xmlns="http://www.w3.org/2000/svg">
<path d="M264.915 90.2121H160.593V171.838H292.249V115.445C292.249 101.529 280.008 90.2121 264.915 90.2121Z" fill="#CC9AFF"/>
<path d="M292.249 172.285H160.593C160.471 172.282 160.355 172.232 160.27 172.145C160.184 172.057 160.137 171.94 160.137 171.818V90.2121C160.137 90.091 160.185 89.9748 160.27 89.8891C160.356 89.8035 160.472 89.7554 160.593 89.7554H264.915C280.241 89.7554 292.716 101.296 292.716 115.475V171.838C292.708 171.958 292.656 172.07 292.569 172.153C292.483 172.236 292.369 172.283 292.249 172.285V172.285ZM161.06 171.351H291.782V115.445C291.782 101.773 279.734 90.6486 264.915 90.6486H161.06V171.351Z" fill="#231F20"/>
<path d="M187.927 172.356H133.259C133.126 172.353 132.998 172.299 132.903 172.205C132.809 172.11 132.754 171.982 132.752 171.849V116.46C132.755 109.357 135.577 102.545 140.6 97.5225C145.623 92.4998 152.434 89.6768 159.538 89.6741H161.872C167.262 89.7239 172.512 91.3969 176.937 94.4749C181.362 97.5529 184.757 101.893 186.679 106.929C187.087 107.919 187.426 108.937 187.694 109.974V109.974C187.736 110.106 187.764 110.242 187.775 110.38C188.247 112.352 188.482 114.372 188.475 116.399V171.757C188.49 171.835 188.486 171.914 188.465 171.99C188.443 172.066 188.404 172.135 188.351 172.194C188.298 172.252 188.232 172.297 188.158 172.325C188.085 172.353 188.006 172.364 187.927 172.356V172.356ZM133.767 171.341H187.42V116.46C187.423 114.488 187.195 112.522 186.74 110.603C186.748 110.522 186.748 110.441 186.74 110.36V110.248C186.468 109.254 186.136 108.278 185.745 107.325C183.889 102.485 180.62 98.3162 176.362 95.3601C172.104 92.4039 167.055 90.7976 161.872 90.75H159.548C156.166 90.7434 152.817 91.4033 149.69 92.6921C146.564 93.9809 143.723 95.8733 141.328 98.2611C138.934 100.649 137.034 103.485 135.736 106.608C134.439 109.731 133.769 113.078 133.767 116.46V171.341Z" fill="#231F20"/>
<path d="M133.269 171.838H187.927V220.274C187.927 226.88 185.303 233.216 180.632 237.887C175.961 242.558 169.625 245.182 163.019 245.182H158.167C151.561 245.182 145.226 242.558 140.555 237.887C135.884 233.216 133.259 226.88 133.259 220.274V171.838H133.269Z" fill="white"/>
<path d="M163.019 245.649H158.178C151.448 245.649 144.994 242.976 140.235 238.217C135.476 233.458 132.803 227.004 132.803 220.274V171.838C132.805 171.715 132.855 171.598 132.942 171.511C133.029 171.424 133.147 171.374 133.27 171.372H187.927C188.05 171.374 188.168 171.424 188.255 171.511C188.342 171.598 188.392 171.715 188.394 171.838V220.274C188.394 227.004 185.721 233.458 180.962 238.217C176.203 242.976 169.749 245.649 163.019 245.649V245.649ZM133.726 172.285V220.254C133.734 226.735 136.313 232.949 140.897 237.531C145.481 242.113 151.696 244.69 158.178 244.695H163.019C169.5 244.69 175.713 242.113 180.296 237.53C184.878 232.948 187.455 226.734 187.46 220.254V172.285H133.726Z" fill="#231F20"/>
<path d="M174.103 216.224H147.094C146.959 216.224 146.83 216.171 146.735 216.076C146.64 215.981 146.586 215.851 146.586 215.717C146.586 215.582 146.64 215.453 146.735 215.358C146.83 215.263 146.959 215.209 147.094 215.209H174.103C174.238 215.209 174.367 215.263 174.462 215.358C174.557 215.453 174.61 215.582 174.61 215.717C174.61 215.851 174.557 215.981 174.462 216.076C174.367 216.171 174.238 216.224 174.103 216.224Z" fill="#D1D3D4"/>
<path d="M217.271 131.279C220.158 131.279 222.498 128.939 222.498 126.052C222.498 123.165 220.158 120.825 217.271 120.825C214.384 120.825 212.044 123.165 212.044 126.052C212.044 128.939 214.384 131.279 217.271 131.279Z" fill="white"/>
<path d="M217.271 131.736C216.144 131.738 215.042 131.405 214.104 130.78C213.166 130.155 212.434 129.266 212.002 128.225C211.57 127.184 211.456 126.039 211.676 124.933C211.895 123.828 212.437 122.812 213.234 122.015C214.031 121.218 215.047 120.676 216.152 120.456C217.258 120.237 218.404 120.351 219.444 120.783C220.485 121.215 221.375 121.946 221.999 122.884C222.624 123.822 222.957 124.925 222.955 126.052C222.952 127.558 222.352 129.003 221.287 130.068C220.222 131.133 218.778 131.733 217.271 131.736V131.736ZM217.271 121.291C216.329 121.291 215.409 121.571 214.626 122.094C213.843 122.617 213.233 123.36 212.873 124.23C212.513 125.1 212.418 126.057 212.602 126.98C212.786 127.904 213.239 128.752 213.905 129.418C214.571 130.084 215.419 130.537 216.342 130.721C217.266 130.904 218.223 130.81 219.093 130.45C219.962 130.089 220.706 129.479 221.229 128.696C221.752 127.914 222.031 126.993 222.031 126.052C222.031 125.427 221.908 124.808 221.669 124.23C221.43 123.652 221.079 123.128 220.637 122.686C220.195 122.244 219.67 121.893 219.093 121.654C218.515 121.415 217.896 121.291 217.271 121.291V121.291Z" fill="#231F20"/>
<path d="M217.271 121.291C217.148 121.289 217.031 121.239 216.944 121.152C216.857 121.065 216.807 120.948 216.804 120.825V56.5141C216.807 56.392 216.857 56.2759 216.944 56.1905C217.032 56.1051 217.149 56.0573 217.271 56.0574C217.392 56.0574 217.508 56.1055 217.594 56.1911C217.679 56.2768 217.728 56.393 217.728 56.5141V120.825C217.728 120.947 217.68 121.064 217.594 121.151C217.509 121.238 217.393 121.289 217.271 121.291Z" fill="#231F20"/>
<path d="M236.485 61.3759L217.271 70.0238V56.5141H236.485V61.3759Z" fill="white"/>
<path d="M217.271 70.5313C217.174 70.531 217.079 70.5028 216.997 70.4501C216.924 70.4057 216.864 70.3429 216.823 70.2681C216.782 70.1933 216.762 70.109 216.763 70.0238V56.5141C216.763 56.3795 216.817 56.2504 216.912 56.1552C217.007 56.0601 217.136 56.0066 217.271 56.0066H236.495C236.629 56.0092 236.756 56.0635 236.851 56.1581C236.946 56.2527 237 56.3803 237.003 56.5141V61.3658C237.002 61.4646 236.972 61.561 236.918 61.6437C236.865 61.7265 236.788 61.792 236.698 61.8327L217.474 70.4805C217.411 70.5126 217.342 70.5299 217.271 70.5313V70.5313ZM217.778 57.0216V69.2016L235.977 61.0106V56.9506L217.778 57.0216Z" fill="#231F20"/>
<path d="M228.202 171.838H206.177V177.096H228.202V171.838Z" fill="white"/>
<path d="M228.202 177.553H206.177C206.055 177.553 205.938 177.505 205.85 177.42C205.763 177.334 205.713 177.218 205.71 177.096V171.838C205.713 171.715 205.763 171.598 205.85 171.511C205.937 171.424 206.054 171.374 206.177 171.372H228.202C228.325 171.374 228.443 171.424 228.53 171.511C228.617 171.598 228.667 171.715 228.669 171.838V177.096C228.667 177.218 228.616 177.334 228.529 177.42C228.442 177.505 228.325 177.553 228.202 177.553V177.553ZM206.644 176.629H227.736V172.285H206.644V176.629Z" fill="#231F20"/>
<path d="M209.719 250.673V177.096H222.975V250.673" fill="white"/>
<path d="M222.975 251.14C222.853 251.138 222.737 251.087 222.652 251C222.566 250.913 222.518 250.796 222.518 250.673V177.593H210.176V250.673C210.186 250.74 210.181 250.808 210.163 250.872C210.144 250.937 210.112 250.996 210.068 251.047C210.024 251.098 209.97 251.139 209.909 251.167C209.848 251.195 209.781 251.209 209.714 251.209C209.647 251.209 209.581 251.195 209.52 251.167C209.459 251.139 209.404 251.098 209.361 251.047C209.317 250.996 209.284 250.937 209.266 250.872C209.247 250.808 209.243 250.74 209.252 250.673V177.096C209.252 177.035 209.264 176.974 209.288 176.917C209.311 176.861 209.346 176.809 209.389 176.766C209.432 176.723 209.484 176.688 209.541 176.665C209.597 176.641 209.658 176.629 209.719 176.629H222.975C223.036 176.629 223.097 176.641 223.154 176.665C223.211 176.688 223.262 176.723 223.305 176.766C223.349 176.809 223.383 176.861 223.407 176.917C223.43 176.974 223.442 177.035 223.442 177.096V250.673C223.442 250.735 223.43 250.795 223.407 250.852C223.383 250.909 223.349 250.96 223.305 251.004C223.262 251.047 223.211 251.081 223.154 251.105C223.097 251.128 223.036 251.14 222.975 251.14V251.14Z" fill="#231F20"/>
<path d="M209.719 188.586L222.975 198.34V177.096H209.719V188.586Z" fill="#231F20"/>
<path d="M222.975 198.848C222.87 198.848 222.767 198.816 222.681 198.756L209.415 189.002C209.352 188.954 209.302 188.893 209.266 188.822C209.231 188.752 209.213 188.675 209.212 188.596V177.096C209.212 176.962 209.265 176.832 209.36 176.737C209.456 176.642 209.585 176.589 209.719 176.589H222.975C223.11 176.589 223.239 176.642 223.334 176.737C223.429 176.832 223.483 176.962 223.483 177.096V198.34C223.485 198.434 223.46 198.527 223.412 198.608C223.363 198.689 223.293 198.754 223.209 198.797C223.137 198.834 223.056 198.851 222.975 198.848ZM210.227 188.332L222.468 197.345V177.604H210.227V188.332Z" fill="#231F20"/>
<path d="M165.283 139.003H165.191L164.176 138.82C164.11 138.809 164.046 138.785 163.989 138.749C163.931 138.713 163.882 138.666 163.843 138.611C163.804 138.556 163.776 138.493 163.761 138.427C163.746 138.362 163.744 138.293 163.755 138.227C163.766 138.16 163.791 138.096 163.827 138.039C163.863 137.982 163.91 137.932 163.965 137.893C164.02 137.854 164.082 137.826 164.148 137.811C164.214 137.796 164.282 137.794 164.349 137.805L165.364 137.978C165.496 138.005 165.613 138.083 165.689 138.195C165.765 138.307 165.794 138.444 165.77 138.577C165.753 138.694 165.694 138.802 165.605 138.88C165.516 138.958 165.401 139.002 165.283 139.003V139.003Z" fill="#D1D3D4"/>
<path d="M96.3032 172.904C96.2362 172.918 96.1671 172.918 96.1002 172.904C96.0387 172.878 95.9831 172.839 95.9365 172.791C95.89 172.743 95.8534 172.686 95.8288 172.624C95.8043 172.562 95.7923 172.495 95.7936 172.428C95.7949 172.362 95.8094 172.296 95.8363 172.234C96.1103 171.605 96.4047 170.986 96.7092 170.367C96.7382 170.307 96.7791 170.253 96.8294 170.209C96.8797 170.165 96.9383 170.131 97.0018 170.111C97.0652 170.09 97.1323 170.082 97.1988 170.088C97.2654 170.093 97.3301 170.112 97.3892 170.143C97.4493 170.173 97.503 170.213 97.5472 170.263C97.5915 170.313 97.6254 170.372 97.6471 170.435C97.6688 170.498 97.6778 170.565 97.6736 170.632C97.6694 170.698 97.6521 170.763 97.6227 170.823C97.3182 171.422 97.034 172.031 96.7701 172.64C96.7246 172.723 96.6568 172.792 96.5743 172.839C96.4918 172.886 96.3979 172.908 96.3032 172.904V172.904ZM98.1302 169.27C98.0411 169.267 97.9541 169.243 97.8764 169.199C97.7614 169.131 97.6772 169.022 97.6412 168.893C97.6053 168.764 97.6205 168.627 97.6836 168.509C98.0287 167.91 98.3839 167.322 98.7595 166.743C98.8354 166.638 98.9489 166.565 99.0766 166.541C99.2043 166.517 99.3364 166.543 99.4457 166.613C99.555 166.683 99.6332 166.793 99.6641 166.919C99.6951 167.045 99.6764 167.178 99.6121 167.291C99.2467 167.86 98.9016 168.428 98.5971 169.007C98.5485 169.085 98.4791 169.148 98.3967 169.189C98.3143 169.231 98.222 169.248 98.1302 169.24V169.27ZM100.333 165.84C100.224 165.839 100.119 165.808 100.028 165.748C99.9212 165.668 99.8497 165.548 99.8288 165.416C99.808 165.283 99.8395 165.148 99.9166 165.038C100.323 164.48 100.739 163.932 101.175 163.404C101.259 163.299 101.381 163.232 101.514 163.217C101.647 163.202 101.78 163.24 101.886 163.323C101.99 163.406 102.057 163.528 102.073 163.661C102.088 163.794 102.05 163.928 101.967 164.033C101.541 164.561 101.135 165.048 100.739 165.637C100.692 165.7 100.631 165.752 100.56 165.787C100.49 165.823 100.412 165.841 100.333 165.84V165.84ZM122.51 165.769C121.774 165.712 121.054 165.53 120.379 165.231C120.255 165.177 120.158 165.076 120.108 164.95C120.059 164.825 120.061 164.685 120.115 164.561C120.169 164.437 120.27 164.34 120.395 164.29C120.521 164.241 120.661 164.243 120.785 164.297C121.352 164.554 121.96 164.709 122.582 164.754C122.648 164.758 122.713 164.775 122.772 164.804C122.832 164.833 122.885 164.874 122.928 164.924C122.972 164.974 123.005 165.033 123.026 165.096C123.046 165.159 123.054 165.225 123.048 165.292C123.046 165.359 123.03 165.425 123.001 165.485C122.972 165.546 122.932 165.601 122.881 165.645C122.831 165.69 122.772 165.724 122.709 165.745C122.645 165.766 122.577 165.774 122.51 165.769V165.769ZM124.54 165.525C124.406 165.545 124.269 165.511 124.159 165.43C124.05 165.349 123.977 165.228 123.957 165.094C123.937 164.959 123.971 164.822 124.052 164.713C124.133 164.603 124.254 164.53 124.388 164.51C124.961 164.333 125.485 164.028 125.921 163.617C125.968 163.569 126.024 163.532 126.086 163.506C126.148 163.48 126.214 163.467 126.281 163.467C126.348 163.467 126.415 163.48 126.476 163.506C126.538 163.532 126.594 163.569 126.642 163.617C126.735 163.713 126.788 163.843 126.788 163.977C126.788 164.112 126.735 164.241 126.642 164.338C126.088 164.861 125.421 165.25 124.693 165.474L124.54 165.525ZM118.836 164.206C118.718 164.211 118.602 164.171 118.511 164.094C117.954 163.638 117.453 163.116 117.019 162.541C116.941 162.432 116.908 162.298 116.927 162.165C116.946 162.033 117.015 161.913 117.121 161.83C117.174 161.789 117.234 161.759 117.299 161.742C117.364 161.724 117.431 161.72 117.498 161.73C117.564 161.739 117.628 161.762 117.685 161.797C117.742 161.832 117.792 161.878 117.831 161.932C118.218 162.44 118.661 162.903 119.151 163.312C119.203 163.354 119.246 163.405 119.278 163.464C119.31 163.522 119.33 163.586 119.337 163.653C119.343 163.719 119.337 163.786 119.317 163.849C119.297 163.913 119.265 163.972 119.222 164.023C119.169 164.075 119.105 164.116 119.035 164.14C118.965 164.165 118.89 164.173 118.816 164.165L118.836 164.206ZM127.2 162.734H127.119C126.986 162.711 126.868 162.639 126.789 162.531C126.709 162.423 126.675 162.288 126.692 162.155C126.707 162 126.707 161.844 126.692 161.688C126.687 161.249 126.608 160.813 126.459 160.399C126.414 160.265 126.425 160.118 126.489 159.991C126.553 159.865 126.664 159.769 126.799 159.724C126.933 159.68 127.08 159.691 127.207 159.755C127.333 159.818 127.429 159.93 127.474 160.064C127.655 160.587 127.751 161.135 127.758 161.688C127.773 161.898 127.773 162.108 127.758 162.318C127.736 162.449 127.662 162.567 127.554 162.644C127.446 162.722 127.311 162.754 127.179 162.734H127.2ZM102.911 162.683C102.784 162.68 102.662 162.633 102.566 162.551C102.518 162.504 102.48 162.448 102.455 162.386C102.429 162.324 102.416 162.258 102.416 162.191C102.416 162.124 102.429 162.057 102.455 161.996C102.48 161.934 102.518 161.878 102.566 161.83C103.022 161.323 103.51 160.815 103.997 160.338C104.094 160.244 104.224 160.192 104.359 160.194C104.494 160.196 104.623 160.252 104.718 160.349C104.812 160.446 104.864 160.576 104.862 160.711C104.86 160.846 104.804 160.975 104.707 161.069C104.23 161.536 103.763 162.013 103.317 162.511C103.264 162.571 103.198 162.618 103.124 162.648C103.05 162.678 102.97 162.69 102.891 162.683H102.911ZM116.4 160.988C116.302 160.989 116.206 160.962 116.123 160.91C116.04 160.858 115.974 160.783 115.933 160.694C115.638 160.046 115.424 159.364 115.294 158.664C115.27 158.529 115.3 158.39 115.378 158.278C115.456 158.166 115.575 158.089 115.71 158.065C115.845 158.041 115.983 158.071 116.096 158.149C116.208 158.227 116.285 158.346 116.309 158.481C116.417 159.111 116.605 159.725 116.867 160.308C116.922 160.431 116.926 160.57 116.879 160.695C116.831 160.821 116.736 160.923 116.613 160.978C116.537 160.999 116.457 161.002 116.38 160.988H116.4ZM105.834 159.841C105.731 159.84 105.63 159.808 105.546 159.748C105.461 159.688 105.397 159.604 105.362 159.507C105.327 159.41 105.322 159.304 105.348 159.204C105.375 159.105 105.431 159.015 105.509 158.948C106.047 158.501 106.595 158.065 107.154 157.679C107.207 157.64 107.268 157.613 107.333 157.598C107.397 157.583 107.464 157.581 107.529 157.593C107.595 157.604 107.657 157.628 107.713 157.664C107.768 157.7 107.816 157.746 107.854 157.801C107.893 157.855 107.921 157.917 107.936 157.983C107.95 158.048 107.952 158.116 107.941 158.182C107.93 158.248 107.905 158.311 107.87 158.367C107.834 158.424 107.787 158.473 107.732 158.511C107.204 158.877 106.717 159.293 106.159 159.729C106.062 159.81 105.939 159.85 105.814 159.841H105.834ZM126.012 158.948C125.933 158.949 125.855 158.931 125.785 158.895C125.714 158.86 125.653 158.809 125.606 158.745C125.248 158.281 124.832 157.864 124.368 157.507L124.256 157.425C124.149 157.345 124.077 157.224 124.058 157.091C124.039 156.958 124.074 156.823 124.155 156.715C124.236 156.608 124.355 156.536 124.487 156.516C124.62 156.495 124.755 156.526 124.865 156.603L124.987 156.695C125.522 157.11 126 157.595 126.408 158.136C126.468 158.209 126.506 158.299 126.517 158.393C126.528 158.488 126.512 158.583 126.47 158.669C126.428 158.754 126.363 158.826 126.282 158.875C126.201 158.925 126.107 158.95 126.012 158.948V158.948ZM109.163 157.507C109.072 157.508 108.982 157.484 108.903 157.437C108.824 157.391 108.76 157.324 108.717 157.243C108.654 157.125 108.638 156.987 108.674 156.859C108.71 156.73 108.794 156.62 108.909 156.552C109.514 156.207 110.138 155.895 110.777 155.619C110.896 155.581 111.025 155.589 111.139 155.641C111.253 155.692 111.344 155.784 111.394 155.899C111.444 156.013 111.451 156.142 111.412 156.261C111.373 156.38 111.291 156.48 111.183 156.542C110.594 156.806 109.996 157.101 109.407 157.436C109.329 157.488 109.236 157.513 109.143 157.507H109.163ZM115.71 157.06C115.576 157.05 115.452 156.988 115.363 156.887C115.274 156.787 115.227 156.656 115.233 156.522C115.287 155.812 115.406 155.109 115.588 154.421C115.605 154.356 115.634 154.295 115.674 154.242C115.714 154.189 115.764 154.144 115.822 154.11C115.879 154.076 115.943 154.054 116.009 154.044C116.075 154.035 116.143 154.039 116.207 154.056C116.294 154.08 116.374 154.127 116.438 154.191C116.502 154.255 116.548 154.334 116.573 154.421C116.619 154.373 116.674 154.335 116.735 154.309C116.796 154.283 116.862 154.269 116.928 154.269H117.253C117.846 154.267 118.44 154.3 119.029 154.37C119.163 154.388 119.285 154.457 119.368 154.564C119.451 154.67 119.49 154.804 119.476 154.939C119.458 155.072 119.388 155.193 119.282 155.274C119.175 155.356 119.04 155.392 118.907 155.375C118.358 155.314 117.806 155.283 117.253 155.284H116.948C116.853 155.284 116.759 155.259 116.677 155.211C116.595 155.163 116.527 155.093 116.481 155.01C116.364 155.531 116.286 156.06 116.248 156.593C116.238 156.726 116.175 156.849 116.075 156.937C115.974 157.024 115.843 157.068 115.71 157.06V157.06ZM122.815 156.512C122.741 156.527 122.665 156.527 122.592 156.512C122.008 156.228 121.4 155.997 120.775 155.822C120.64 155.785 120.526 155.697 120.456 155.576C120.387 155.455 120.368 155.312 120.404 155.177C120.441 155.043 120.529 154.928 120.65 154.858C120.771 154.789 120.914 154.77 121.049 154.807C121.746 155.003 122.425 155.258 123.079 155.568C123.198 155.627 123.288 155.73 123.332 155.855C123.376 155.981 123.369 156.118 123.312 156.238C123.26 156.32 123.185 156.385 123.097 156.426C123.009 156.467 122.911 156.483 122.815 156.471V156.512ZM112.878 155.923C112.768 155.925 112.66 155.89 112.572 155.824C112.484 155.758 112.42 155.664 112.391 155.558C112.353 155.43 112.367 155.292 112.429 155.174C112.492 155.057 112.599 154.968 112.726 154.928C113.39 154.724 114.069 154.568 114.756 154.462C114.822 154.451 114.891 154.454 114.956 154.469C115.022 154.485 115.084 154.513 115.138 154.553C115.193 154.592 115.239 154.642 115.275 154.7C115.31 154.757 115.334 154.821 115.345 154.888C115.355 154.955 115.353 155.023 115.337 155.088C115.321 155.154 115.293 155.216 115.253 155.271C115.214 155.325 115.164 155.372 115.106 155.407C115.049 155.442 114.985 155.466 114.918 155.477C114.27 155.585 113.629 155.734 113 155.923H112.878ZM116.725 153.102C116.655 153.115 116.582 153.115 116.512 153.102C116.389 153.046 116.294 152.945 116.247 152.819C116.199 152.693 116.203 152.554 116.258 152.432C116.55 151.792 116.889 151.174 117.273 150.584C117.344 150.47 117.458 150.389 117.59 150.358C117.721 150.328 117.859 150.351 117.973 150.422C118.088 150.493 118.169 150.607 118.2 150.738C118.23 150.87 118.207 151.008 118.136 151.122C117.787 151.677 117.475 152.253 117.202 152.848C117.155 152.932 117.086 153 117.001 153.045C116.916 153.09 116.82 153.11 116.725 153.102V153.102ZM118.867 149.65C118.752 149.649 118.642 149.61 118.552 149.539C118.499 149.497 118.454 149.446 118.421 149.387C118.388 149.328 118.367 149.263 118.36 149.196C118.352 149.128 118.358 149.061 118.377 148.996C118.396 148.931 118.428 148.871 118.471 148.818C118.887 148.29 119.354 147.803 119.841 147.255C119.935 147.158 120.064 147.103 120.199 147.101C120.334 147.099 120.465 147.151 120.562 147.245C120.659 147.339 120.714 147.468 120.716 147.603C120.718 147.738 120.666 147.869 120.572 147.966C120.111 148.441 119.674 148.939 119.262 149.458C119.212 149.519 119.148 149.568 119.076 149.602C119.004 149.635 118.926 149.652 118.846 149.65H118.867ZM122.084 146.534L121.688 146.21L121.353 145.824C121.922 145.337 122.429 144.921 122.947 144.515C123.053 144.433 123.188 144.396 123.321 144.414C123.454 144.431 123.575 144.5 123.657 144.606C123.699 144.658 123.73 144.718 123.748 144.783C123.766 144.847 123.771 144.914 123.763 144.981C123.754 145.047 123.732 145.111 123.699 145.169C123.665 145.226 123.62 145.277 123.566 145.316C123.048 145.712 122.551 146.108 122.064 146.534H122.084ZM124.916 144.241C124.832 144.24 124.75 144.219 124.676 144.18C124.602 144.141 124.538 144.086 124.49 144.017C124.416 143.904 124.389 143.766 124.416 143.633C124.442 143.5 124.52 143.383 124.632 143.307C125.2 142.921 125.779 142.556 126.378 142.211C126.492 142.143 126.629 142.123 126.758 142.156C126.887 142.188 126.998 142.27 127.068 142.383C127.136 142.499 127.156 142.638 127.124 142.768C127.091 142.899 127.009 143.012 126.895 143.083C126.32 143.422 125.752 143.777 125.19 144.149C125.105 144.212 125.001 144.244 124.896 144.241H124.916ZM128.418 142.211C128.324 142.211 128.232 142.185 128.151 142.137C128.071 142.089 128.005 142.019 127.961 141.937C127.901 141.817 127.891 141.678 127.932 141.55C127.974 141.423 128.065 141.317 128.184 141.256C128.803 140.942 129.423 140.647 130.052 140.363C130.176 140.312 130.315 140.31 130.44 140.36C130.565 140.409 130.666 140.505 130.722 140.627C130.749 140.688 130.763 140.754 130.764 140.821C130.766 140.888 130.754 140.955 130.729 141.017C130.705 141.079 130.668 141.136 130.622 141.184C130.575 141.232 130.519 141.271 130.458 141.297C129.849 141.561 129.24 141.855 128.651 142.16C128.568 142.18 128.482 142.183 128.397 142.17L128.418 142.211ZM132.143 140.566C132.008 140.59 131.87 140.56 131.757 140.482C131.645 140.404 131.568 140.285 131.544 140.15C131.52 140.015 131.55 139.877 131.628 139.764C131.706 139.652 131.826 139.575 131.96 139.551C132.6 139.308 133.249 139.084 133.909 138.871C134.037 138.83 134.176 138.84 134.296 138.901C134.416 138.962 134.507 139.068 134.548 139.196C134.587 139.325 134.573 139.464 134.511 139.584C134.448 139.703 134.342 139.793 134.213 139.835C133.574 140.038 132.945 140.262 132.315 140.495C132.256 140.524 132.188 140.535 132.123 140.526L132.143 140.566ZM136.01 139.308C135.9 139.309 135.792 139.274 135.704 139.208C135.616 139.142 135.552 139.049 135.523 138.942C135.488 138.812 135.506 138.673 135.572 138.555C135.639 138.438 135.748 138.351 135.878 138.313C136.538 138.14 137.208 137.968 137.908 137.826C137.973 137.811 138.041 137.809 138.107 137.82C138.173 137.832 138.236 137.856 138.293 137.892C138.35 137.928 138.398 137.974 138.437 138.029C138.475 138.084 138.503 138.146 138.517 138.211C138.532 138.276 138.534 138.343 138.522 138.409C138.511 138.474 138.486 138.536 138.45 138.592C138.414 138.648 138.368 138.696 138.313 138.734C138.258 138.771 138.196 138.797 138.131 138.81C137.472 138.963 136.822 139.115 136.172 139.297L136.01 139.308ZM162.298 138.536H162.217L160.187 138.252C160.122 138.245 160.058 138.224 160.001 138.192C159.943 138.16 159.893 138.116 159.852 138.064C159.812 138.012 159.782 137.953 159.764 137.889C159.747 137.826 159.742 137.759 159.751 137.694C159.769 137.56 159.838 137.438 159.944 137.355C160.05 137.271 160.185 137.233 160.319 137.247L162.349 137.531C162.484 137.541 162.609 137.603 162.698 137.705C162.786 137.807 162.831 137.94 162.821 138.074C162.812 138.209 162.749 138.334 162.647 138.423C162.546 138.511 162.413 138.556 162.278 138.546L162.298 138.536ZM139.968 138.425C139.902 138.431 139.835 138.423 139.771 138.403C139.707 138.383 139.648 138.351 139.596 138.308C139.492 138.222 139.427 138.097 139.415 137.963C139.403 137.828 139.445 137.694 139.532 137.591C139.618 137.487 139.743 137.422 139.877 137.41C140.547 137.288 141.227 137.186 141.907 137.085C142.041 137.067 142.177 137.103 142.285 137.185C142.394 137.266 142.466 137.387 142.486 137.521C142.503 137.654 142.467 137.789 142.385 137.896C142.303 138.002 142.182 138.072 142.049 138.09L140.019 138.404L139.968 138.425ZM158.238 138.008H158.178L156.148 137.816C156.013 137.805 155.888 137.741 155.801 137.638C155.713 137.535 155.67 137.402 155.681 137.267C155.691 137.133 155.755 137.008 155.858 136.921C155.961 136.833 156.094 136.79 156.229 136.801C156.909 136.851 157.589 136.912 158.259 136.993C158.392 137.009 158.513 137.076 158.597 137.181C158.681 137.285 158.72 137.419 158.705 137.552C158.687 137.664 158.63 137.767 158.546 137.842C158.461 137.918 158.352 137.962 158.238 137.968V138.008ZM144.028 137.866C143.894 137.873 143.762 137.826 143.662 137.736C143.562 137.645 143.502 137.519 143.496 137.384C143.489 137.25 143.536 137.118 143.626 137.018C143.717 136.918 143.843 136.858 143.978 136.851C144.658 136.78 145.348 136.719 146.008 136.679C146.075 136.672 146.143 136.679 146.207 136.699C146.272 136.72 146.331 136.754 146.382 136.799C146.432 136.844 146.473 136.899 146.501 136.96C146.53 137.022 146.545 137.088 146.546 137.156C146.554 137.289 146.51 137.42 146.422 137.521C146.335 137.621 146.212 137.683 146.079 137.694C145.399 137.694 144.729 137.795 144.049 137.856L144.028 137.866ZM154.178 137.684C153.509 137.684 152.829 137.623 152.148 137.602C152.082 137.601 152.016 137.587 151.955 137.56C151.894 137.533 151.839 137.495 151.793 137.447C151.746 137.399 151.71 137.342 151.686 137.28C151.662 137.218 151.65 137.151 151.651 137.085C151.661 136.953 151.719 136.829 151.815 136.737C151.91 136.645 152.036 136.592 152.169 136.587C152.859 136.587 153.539 136.587 154.199 136.669C154.334 136.677 154.461 136.737 154.552 136.838C154.644 136.939 154.692 137.071 154.686 137.207C154.669 137.329 154.608 137.44 154.514 137.52C154.421 137.601 154.302 137.644 154.178 137.643V137.684ZM148.088 137.602C147.954 137.602 147.825 137.549 147.73 137.454C147.634 137.359 147.581 137.23 147.581 137.095C147.581 136.96 147.634 136.831 147.73 136.736C147.825 136.641 147.954 136.587 148.088 136.587H150.118C150.253 136.587 150.382 136.641 150.477 136.736C150.572 136.831 150.626 136.96 150.626 137.095C150.627 137.161 150.615 137.227 150.591 137.288C150.567 137.35 150.53 137.406 150.484 137.453C150.438 137.5 150.382 137.538 150.321 137.564C150.26 137.589 150.195 137.602 150.129 137.602C149.449 137.602 148.779 137.602 148.099 137.602H148.088Z" fill="#D1D3D4"/>
<path d="M95.1765 175.807H95.0141C94.8882 175.763 94.7845 175.672 94.7257 175.552C94.6668 175.432 94.6574 175.294 94.6995 175.168C94.8111 174.843 94.9228 174.518 95.0446 174.153C95.0924 174.028 95.1874 173.927 95.3089 173.872C95.4305 173.817 95.5689 173.812 95.6942 173.858C95.8206 173.904 95.9238 173.998 95.9809 174.12C96.038 174.242 96.0444 174.381 95.9987 174.508C95.8769 174.826 95.7652 175.141 95.6637 175.452C95.6312 175.555 95.5663 175.646 95.4786 175.71C95.3909 175.774 95.285 175.808 95.1765 175.807V175.807Z" fill="#D1D3D4"/>
<path d="M152.443 123.839C152.325 123.837 152.211 123.794 152.121 123.719C152.03 123.643 151.969 123.539 151.945 123.423C151.922 123.291 151.951 123.155 152.027 123.045C152.103 122.935 152.22 122.859 152.351 122.834C152.664 122.768 152.97 122.673 153.265 122.55C153.327 122.525 153.393 122.513 153.46 122.514C153.527 122.515 153.592 122.529 153.654 122.555C153.715 122.582 153.771 122.62 153.817 122.668C153.864 122.716 153.9 122.772 153.925 122.834C153.972 122.96 153.969 123.098 153.916 123.221C153.863 123.344 153.764 123.442 153.641 123.494C153.295 123.626 152.938 123.728 152.575 123.798L152.443 123.839Z" fill="#D1D3D4"/>
<path d="M150.453 123.91C149.767 123.835 149.088 123.703 148.423 123.514C148.357 123.497 148.294 123.467 148.239 123.425C148.184 123.384 148.138 123.332 148.103 123.272C148.068 123.213 148.046 123.147 148.036 123.079C148.027 123.011 148.031 122.941 148.048 122.875C148.065 122.808 148.095 122.746 148.137 122.691C148.179 122.636 148.23 122.589 148.29 122.555C148.349 122.52 148.415 122.497 148.483 122.487C148.551 122.478 148.621 122.482 148.687 122.499C149.306 122.669 149.937 122.788 150.575 122.855C150.642 122.861 150.707 122.88 150.766 122.912C150.825 122.943 150.878 122.986 150.92 123.038C150.963 123.09 150.994 123.15 151.013 123.214C151.033 123.279 151.039 123.346 151.032 123.413C151.033 123.485 151.018 123.558 150.988 123.624C150.958 123.69 150.914 123.749 150.859 123.797C150.804 123.844 150.739 123.879 150.669 123.898C150.599 123.918 150.525 123.922 150.453 123.91V123.91ZM146.566 122.895C146.509 122.905 146.451 122.905 146.393 122.895L144.506 122.215C144.441 122.194 144.382 122.16 144.33 122.115C144.279 122.07 144.238 122.016 144.208 121.955C144.178 121.894 144.161 121.828 144.158 121.76C144.154 121.692 144.164 121.624 144.187 121.561C144.21 121.497 144.246 121.438 144.292 121.388C144.338 121.339 144.394 121.299 144.456 121.271C144.518 121.243 144.584 121.227 144.652 121.226C144.72 121.224 144.788 121.236 144.851 121.261L146.739 121.941C146.805 121.952 146.869 121.977 146.926 122.013C146.983 122.049 147.033 122.096 147.072 122.151C147.111 122.206 147.139 122.268 147.154 122.334C147.169 122.4 147.171 122.468 147.16 122.535C147.148 122.601 147.124 122.665 147.088 122.722C147.052 122.78 147.005 122.829 146.95 122.868C146.895 122.907 146.833 122.935 146.767 122.95C146.701 122.965 146.633 122.967 146.566 122.956V122.895ZM142.79 121.535C142.733 121.545 142.675 121.545 142.618 121.535L140.73 120.825C140.667 120.802 140.61 120.767 140.561 120.722C140.512 120.677 140.473 120.622 140.445 120.562C140.418 120.501 140.403 120.436 140.401 120.369C140.399 120.303 140.411 120.237 140.435 120.175C140.459 120.112 140.495 120.054 140.541 120.005C140.587 119.956 140.642 119.917 140.704 119.89C140.765 119.862 140.831 119.848 140.898 119.846C140.966 119.844 141.033 119.856 141.095 119.881L142.973 120.581C143.098 120.629 143.198 120.724 143.253 120.845C143.308 120.967 143.313 121.105 143.267 121.23C143.229 121.325 143.163 121.405 143.077 121.459C142.992 121.514 142.891 121.54 142.79 121.535V121.535ZM139.055 120.124C138.992 120.139 138.926 120.139 138.862 120.124C138.243 119.881 137.614 119.627 136.995 119.363C136.873 119.309 136.776 119.211 136.725 119.088C136.674 118.965 136.673 118.827 136.72 118.703C136.776 118.581 136.877 118.484 137.001 118.433C137.126 118.382 137.265 118.381 137.39 118.429C137.999 118.693 138.619 118.937 139.238 119.18C139.3 119.205 139.356 119.241 139.404 119.288C139.452 119.334 139.49 119.39 139.517 119.451C139.543 119.512 139.557 119.578 139.558 119.645C139.559 119.712 139.547 119.778 139.522 119.84C139.48 119.928 139.414 120.001 139.331 120.052C139.248 120.102 139.152 120.128 139.055 120.124ZM135.35 118.571C135.283 118.586 135.214 118.586 135.147 118.571L133.31 117.729C133.249 117.7 133.194 117.66 133.149 117.611C133.104 117.561 133.069 117.503 133.046 117.44C133.023 117.376 133.014 117.309 133.017 117.242C133.021 117.175 133.037 117.109 133.066 117.049C133.126 116.927 133.23 116.834 133.357 116.789C133.484 116.743 133.624 116.749 133.747 116.805C134.345 117.099 134.944 117.374 135.553 117.637C135.688 117.664 135.806 117.744 135.882 117.858C135.959 117.972 135.986 118.112 135.959 118.246C135.932 118.381 135.853 118.499 135.739 118.576C135.625 118.652 135.485 118.679 135.35 118.652V118.571ZM131.727 116.846C131.645 116.846 131.564 116.825 131.493 116.785C130.894 116.48 130.296 116.166 129.707 115.831C129.648 115.799 129.596 115.756 129.554 115.703C129.512 115.651 129.482 115.591 129.464 115.527C129.446 115.462 129.441 115.395 129.449 115.328C129.458 115.262 129.48 115.198 129.514 115.14C129.58 115.024 129.69 114.938 129.819 114.901C129.949 114.865 130.087 114.882 130.204 114.948C130.783 115.272 131.371 115.587 131.96 115.892C132.019 115.922 132.072 115.963 132.115 116.014C132.158 116.064 132.19 116.123 132.21 116.187C132.23 116.25 132.237 116.317 132.231 116.383C132.224 116.449 132.205 116.513 132.173 116.572C132.13 116.655 132.064 116.725 131.984 116.773C131.903 116.822 131.811 116.847 131.717 116.846H131.727ZM128.225 114.887C128.133 114.884 128.042 114.859 127.961 114.816C127.382 114.46 126.814 114.095 126.246 113.72C126.19 113.682 126.142 113.633 126.106 113.577C126.069 113.521 126.043 113.458 126.031 113.392C126.019 113.326 126.02 113.258 126.034 113.192C126.048 113.126 126.075 113.064 126.114 113.009C126.15 112.954 126.198 112.906 126.253 112.87C126.309 112.833 126.371 112.808 126.436 112.795C126.501 112.783 126.568 112.784 126.633 112.798C126.698 112.812 126.76 112.839 126.814 112.877C127.362 113.242 127.92 113.581 128.489 113.892C128.585 113.949 128.659 114.036 128.701 114.14C128.742 114.243 128.749 114.358 128.719 114.465C128.689 114.573 128.624 114.667 128.535 114.734C128.445 114.801 128.337 114.837 128.225 114.836V114.887ZM124.845 112.644C124.735 112.646 124.627 112.61 124.54 112.542L123.931 112.075C123.597 111.821 123.262 111.558 122.916 111.284C122.865 111.241 122.823 111.189 122.792 111.129C122.761 111.07 122.741 111.006 122.735 110.939C122.729 110.873 122.736 110.806 122.756 110.742C122.776 110.678 122.808 110.619 122.851 110.568C122.893 110.517 122.946 110.474 123.005 110.443C123.064 110.412 123.128 110.393 123.195 110.387C123.261 110.381 123.328 110.388 123.392 110.407C123.456 110.427 123.515 110.459 123.566 110.502C123.891 110.766 124.206 111.03 124.581 111.273L125.18 111.73C125.265 111.794 125.328 111.883 125.36 111.985C125.392 112.086 125.391 112.196 125.357 112.297C125.323 112.398 125.259 112.486 125.172 112.548C125.086 112.61 124.982 112.644 124.875 112.644H124.845ZM121.8 110.076C121.671 110.073 121.548 110.022 121.455 109.934C120.958 109.467 120.44 108.99 120.014 108.492C119.966 108.446 119.929 108.391 119.903 108.33C119.878 108.269 119.864 108.203 119.864 108.137C119.864 108.071 119.878 108.005 119.903 107.944C119.929 107.883 119.966 107.828 120.014 107.782C120.061 107.734 120.117 107.696 120.179 107.671C120.241 107.645 120.307 107.632 120.374 107.632C120.441 107.632 120.507 107.645 120.569 107.671C120.631 107.696 120.687 107.734 120.734 107.782C121.181 108.259 121.648 108.726 122.135 109.172C122.182 109.219 122.22 109.276 122.246 109.337C122.272 109.399 122.285 109.466 122.285 109.533C122.285 109.6 122.272 109.666 122.246 109.728C122.22 109.79 122.182 109.846 122.135 109.893C122.094 109.944 122.043 109.986 121.986 110.018C121.928 110.049 121.865 110.069 121.8 110.076V110.076ZM119.049 107.152C118.975 107.153 118.902 107.137 118.835 107.106C118.769 107.074 118.71 107.027 118.664 106.97C118.227 106.452 117.801 105.955 117.405 105.366C117.328 105.256 117.296 105.121 117.317 104.988C117.338 104.856 117.41 104.736 117.517 104.656C117.571 104.616 117.632 104.588 117.697 104.572C117.762 104.556 117.829 104.553 117.895 104.564C117.961 104.574 118.024 104.597 118.081 104.632C118.138 104.667 118.188 104.713 118.227 104.767C118.613 105.295 119.019 105.782 119.435 106.32C119.521 106.424 119.563 106.558 119.551 106.693C119.54 106.828 119.476 106.952 119.374 107.041C119.281 107.112 119.167 107.151 119.049 107.152V107.152ZM116.695 103.904C116.608 103.905 116.523 103.884 116.447 103.843C116.37 103.802 116.306 103.743 116.258 103.671C115.893 103.092 115.548 102.494 115.243 101.895C115.181 101.775 115.169 101.635 115.21 101.507C115.251 101.379 115.342 101.272 115.461 101.21C115.581 101.148 115.721 101.136 115.849 101.177C115.978 101.218 116.085 101.308 116.146 101.428C116.451 101.996 116.776 102.565 117.161 103.133C117.197 103.19 117.221 103.253 117.232 103.319C117.243 103.384 117.241 103.452 117.226 103.517C117.211 103.582 117.183 103.643 117.144 103.698C117.105 103.752 117.056 103.798 116.999 103.833C116.917 103.884 116.821 103.908 116.725 103.904H116.695ZM114.817 100.362C114.718 100.362 114.621 100.334 114.538 100.28C114.455 100.226 114.39 100.148 114.35 100.058C114.072 99.4148 113.829 98.7753 113.619 98.1392C113.588 98.0746 113.571 98.0041 113.569 97.9324C113.568 97.8607 113.581 97.7894 113.609 97.7233C113.637 97.6572 113.678 97.5977 113.731 97.5488C113.783 97.4999 113.845 97.4627 113.913 97.4396C113.981 97.4165 114.053 97.408 114.125 97.4148C114.196 97.4215 114.265 97.4433 114.327 97.4787C114.39 97.5141 114.444 97.5624 114.486 97.6202C114.529 97.6781 114.558 97.7443 114.573 97.8144C114.776 98.4234 115.02 99.0426 115.284 99.6516C115.335 99.7757 115.337 99.9149 115.287 100.04C115.238 100.165 115.142 100.266 115.02 100.321C114.954 100.345 114.886 100.358 114.817 100.362V100.362ZM113.538 96.5558C113.425 96.5564 113.315 96.5185 113.227 96.4485C113.138 96.3784 113.076 96.2802 113.051 96.1702C112.888 95.5005 112.759 94.823 112.665 94.1402C112.655 94.074 112.658 94.0065 112.675 93.9417C112.692 93.8769 112.722 93.8162 112.762 93.7631C112.803 93.71 112.854 93.6657 112.912 93.6329C112.971 93.6 113.035 93.5792 113.101 93.5717C113.233 93.5543 113.366 93.5891 113.473 93.6688C113.579 93.7485 113.65 93.8667 113.67 93.9981C113.761 94.6375 113.883 95.2871 114.035 95.9265C114.063 96.0569 114.04 96.1929 113.97 96.3064C113.9 96.4198 113.789 96.5019 113.66 96.5356L113.538 96.5558Z" fill="#D1D3D4"/>
<path d="M112.99 92.5669C112.859 92.567 112.733 92.5163 112.638 92.4255C112.543 92.3347 112.488 92.2108 112.482 92.0797C112.482 91.7346 112.482 91.3895 112.482 91.0647C112.479 90.9977 112.49 90.9309 112.515 90.8685C112.54 90.8061 112.577 90.7496 112.625 90.7027C112.673 90.6558 112.73 90.6194 112.793 90.5961C112.856 90.5728 112.923 90.563 112.99 90.5673C113.124 90.5673 113.253 90.6208 113.349 90.716C113.444 90.8112 113.497 90.9403 113.497 91.0748C113.497 91.4098 113.497 91.7346 113.497 92.0898C113.5 92.1565 113.49 92.2231 113.467 92.2857C113.444 92.3483 113.408 92.4057 113.363 92.4548C113.318 92.5038 113.263 92.5434 113.203 92.5714C113.142 92.5993 113.077 92.615 113.01 92.6177L112.99 92.5669Z" fill="#D1D3D4"/>
<path d="M114.147 78.6411C117.175 75.9556 119.296 72.3974 120.217 68.4564C121.139 64.5155 120.816 60.3857 119.293 56.6359C119.293 56.6359 112.188 56.8186 109.864 65.1112C107.539 73.4037 114.147 78.6411 114.147 78.6411Z" fill="white"/>
<path d="M114.147 79.1486C114.032 79.1524 113.919 79.1125 113.832 79.0369C113.761 79.0369 107.022 73.5052 109.366 64.9792C111.711 56.4532 119.202 56.1284 119.283 56.1284C119.388 56.1292 119.491 56.1616 119.578 56.2213C119.665 56.2809 119.731 56.3653 119.77 56.4634C121.308 60.3161 121.623 64.5487 120.674 68.5868C119.724 72.625 117.555 76.2733 114.462 79.0369C114.375 79.1125 114.262 79.1524 114.147 79.1486V79.1486ZM118.948 57.1739C117.507 57.3363 112.239 58.3817 110.351 65.2939C108.463 72.206 112.909 76.8547 114.147 78.0118C116.963 75.4328 118.929 72.0599 119.786 68.3391C120.644 64.6183 120.351 60.7249 118.948 57.1739V57.1739Z" fill="#D1D3D4"/>
<path d="M115.05 83.909C114.947 83.9083 114.847 83.877 114.762 83.8192C114.677 83.7614 114.611 83.6795 114.573 83.5842C110.513 72.6425 118.501 57.0622 118.836 56.4025C118.901 56.284 119.009 56.1954 119.138 56.1556C119.267 56.1158 119.406 56.1279 119.526 56.1893C119.644 56.2519 119.732 56.3584 119.772 56.4856C119.812 56.6129 119.8 56.7507 119.74 56.8694C119.658 57.0318 111.62 72.7135 115.527 83.2594C115.552 83.3212 115.563 83.3874 115.561 83.4538C115.56 83.5203 115.545 83.5858 115.517 83.6463C115.49 83.7069 115.451 83.7613 115.402 83.8064C115.353 83.8516 115.295 83.8864 115.233 83.909C115.172 83.9186 115.111 83.9186 115.05 83.909V83.909Z" fill="#D1D3D4"/>
<path d="M101.693 181.856C104.72 184.543 106.84 188.101 107.761 192.042C108.683 195.982 108.36 200.112 106.839 203.862C106.839 203.862 99.7339 203.689 97.4096 195.386C95.0852 187.084 101.693 181.856 101.693 181.856Z" fill="white"/>
<path d="M106.839 204.369C106.768 204.369 99.2873 204.085 96.9325 195.518C94.5777 186.952 101.317 181.511 101.388 181.461C101.479 181.387 101.592 181.347 101.708 181.347C101.825 181.347 101.937 181.387 102.028 181.461C105.119 184.228 107.286 187.879 108.233 191.918C109.181 195.958 108.864 200.191 107.326 204.044C107.288 204.142 107.221 204.226 107.134 204.284C107.047 204.342 106.944 204.372 106.839 204.369ZM101.693 182.526C99.9448 184.087 98.6643 186.102 97.9941 188.348C97.3238 190.593 97.2901 192.981 97.8967 195.244C99.7948 202.116 105.063 203.171 106.494 203.364C107.858 199.807 108.129 195.925 107.274 192.212C106.419 188.5 104.476 185.128 101.693 182.526V182.526Z" fill="#D1D3D4"/>
<path d="M106.839 204.369C106.747 204.368 106.656 204.343 106.577 204.294C106.499 204.246 106.435 204.177 106.392 204.095C106.047 203.435 98.0997 187.855 102.129 176.913C102.177 176.789 102.272 176.688 102.394 176.633C102.515 176.578 102.654 176.573 102.779 176.619C102.905 176.665 103.009 176.759 103.066 176.881C103.123 177.003 103.129 177.142 103.083 177.269C99.2061 187.794 107.214 203.476 107.296 203.659C107.356 203.779 107.366 203.917 107.324 204.045C107.282 204.172 107.192 204.278 107.072 204.339C106.998 204.369 106.918 204.379 106.839 204.369Z" fill="#D1D3D4"/>
<path d="M105.702 120.693C102.486 123.15 98.5883 124.55 94.544 124.701C90.4998 124.852 86.5082 123.746 83.1183 121.535C83.1183 121.535 84.651 114.562 93.2683 113.902C101.886 113.242 105.702 120.693 105.702 120.693Z" fill="white"/>
<path d="M93.7759 125.23C89.8987 125.189 86.111 124.06 82.8443 121.971C82.7553 121.917 82.6858 121.835 82.6457 121.739C82.6056 121.642 82.597 121.535 82.621 121.434C82.621 121.352 84.3364 114.075 93.1973 113.395C102.058 112.715 106.108 120.378 106.149 120.5C106.203 120.601 106.221 120.718 106.199 120.831C106.176 120.944 106.116 121.046 106.027 121.119C102.486 123.76 98.1933 125.2 93.7759 125.23V125.23ZM83.7071 121.302C86.9191 123.345 90.6747 124.368 94.4794 124.236C98.2842 124.104 101.96 122.822 105.022 120.561C103.822 118.554 102.089 116.918 100.016 115.836C97.9434 114.754 95.6112 114.267 93.2785 114.43C86.1735 114.948 84.1334 119.921 83.7071 121.302Z" fill="#D1D3D4"/>
<path d="M110.199 122.997C110.106 122.999 110.014 122.974 109.935 122.926C100.353 117.11 83.433 121.971 83.2604 122.022C83.1258 122.06 82.9818 122.043 82.86 121.974C82.7381 121.906 82.6485 121.791 82.6108 121.657C82.5731 121.522 82.5905 121.378 82.659 121.256C82.7275 121.134 82.8416 121.045 82.9762 121.007C83.6867 120.804 100.485 115.932 110.462 122.022C110.554 122.081 110.624 122.168 110.662 122.269C110.7 122.371 110.705 122.482 110.676 122.587C110.646 122.691 110.584 122.783 110.498 122.85C110.412 122.916 110.307 122.954 110.199 122.956V122.997Z" fill="#D1D3D4"/>
</svg>
